<svg width="24" height="35" viewBox="0 0 24 35" fill="none" xmlns="http://www.w3.org/2000/svg">
<path d="M11.832 16.9984L0.000525475 12.3066L0.000524809 19.9223L11.832 24.6141L11.832 16.9984Z" fill="#DDD0BD"/>
<path d="M11.832 16.9984L0.000525475 12.3066L0.000524809 19.9223L11.832 24.6141L11.832 16.9984Z" fill="#DDD0BD"/>
<path d="M11.832 7.61484L0.000525475 12.3066L0.000524809 4.69096L11.832 -0.00084877L11.832 7.61484Z" fill="#DDD0BD"/>
<path d="M11.832 7.61484L23.6635 12.3066L23.6635 4.69096L11.832 -0.00084877L11.832 7.61484Z" fill="#DDD0BD"/>
<path d="M11.832 7.61484L23.6635 12.3066L23.6635 4.69096L11.832 -0.00084877L11.832 7.61484Z" fill="#DDD0BD"/>
<path d="M11.832 7.61484L23.6635 12.3066L23.6635 4.69096L11.832 -0.00084877L11.832 7.61484Z" fill="#DDD0BD"/>
<path d="M1.07595e-06 29.3082L11.8315 34L11.8315 26.3843L1.07595e-06 21.6925L1.07595e-06 29.3082Z" fill="#DDD0BD"/>
<path d="M11.832 17.0016L23.6635 21.6934L23.6635 14.0777L11.832 9.38587L11.832 17.0016Z" fill="#DDD0BD"/>
<path d="M11.832 17.0016L23.6635 21.6934L23.6635 14.0777L11.832 9.38587L11.832 17.0016Z" fill="#DDD0BD"/>
<path d="M11.832 26.3852L23.6635 21.6934L23.6635 29.309L11.832 34.0008L11.832 26.3852Z" fill="#DDD0BD"/>
<path d="M11.832 26.3852L0.000525475 21.6934L0.000524809 29.309L11.832 34.0008L11.832 26.3852Z" fill="#DDD0BD"/>
<path d="M11.832 26.3852L0.000525475 21.6934L0.000524809 29.309L11.832 34.0008L11.832 26.3852Z" fill="#DDD0BD"/>
</svg>
